<?xml version="1.0" encoding="utf-8"?>
<!-- Generator: Adobe Illustrator 22.0.1, SVG Export Plug-In . SVG Version: 6.00 Build 0)  -->
<svg version="1.1" id="Слой_1" xmlns="http://www.w3.org/2000/svg" xmlns:xlink="http://www.w3.org/1999/xlink" x="0px" y="0px"
	 viewBox="0 0 199.7 199.7" style="enable-background:new 0 0 199.7 199.7;" xml:space="preserve">
<style type="text/css">
	.st0{fill:#1D527A;}
	.st1{fill:none;stroke:#CB2328;stroke-miterlimit:10;}
	.st2{fill:#BF9B80;}
	.st3{fill:#4A4B4C;}
	.st4{fill:none;stroke:#C48E7E;stroke-width:0.5;stroke-miterlimit:10;}
	.st5{fill:#93776A;}
	.st6{fill:none;stroke:#966F60;stroke-width:0.25;stroke-miterlimit:10;}
	.st7{fill:#6F5A50;}
	.st8{fill:#0F0F0F;}
	.st9{fill:#937869;}
	.st10{fill:#7F6F62;}
	.st11{fill:#3A3A3A;}
	.st12{fill:#846C5F;}
	.st13{fill:#E4E4E4;}
	.st14{fill:#FFFFFF;}
	.st15{fill:none;stroke:#ECDFDB;stroke-width:0.25;stroke-miterlimit:10;}
	.st16{fill:#BF9B80;stroke:#BF9B80;stroke-miterlimit:10;}
</style>
<g>
	<circle class="st0" cx="99.7" cy="98.8" r="87.9"/>
	<path class="st1" d="M160.6,89.2"/>
	<path class="st2" d="M57.7,160.5c0,0,9.8-3.8,6-33.3c-0.1,0.4,8.5-8.6,8.5-8.6s-6.4-33,7.8-41.5c0,0.1,12.5-6.2,24.7,15.1l9.1-0.1
		c0,0-2.2-22.4,4.8-29.6s-12.1-20.8-12.1-20.8s-5.5-6.3,4.9-6.1c0.6-0.1,5.2,0.8,5.2,0.8s6.7,1.7,8.7,3c0.2,0.1,0.3,0.2,0.4,0.3
		c0.2,0.2,8.7,9.8,10,15.9c0.2,0,3.2,6.5,4,6.5c-0.1,0.2,3.1,5.8,2.2,9.1c0,0.1-0.9,5.7,2.9,7.5c0,0,10.8,10.3,11.7,10.2
		c-0.1,0.2,4.8,3.3-1.7,6.2c0,0.1-2.7,1.3-2.7,1.3s-2.5,0.3-0.5,3.5c0.2,0.2,2.9,5.3-1,6.3c0,0.1,0.5,4.8,0.4,5s4.7,1.3,3.1,4.8
		c-0.1,0.2-1.6,3.5-1.6,3.5s-1.2,2.7-0.3,3.1c0.1,0.4,6.6,7.7,1,11.6c-0.1,0-8.8,4.8-21.4,8.3c0.2,0.2-6.4,0.1-4.9,9.3
		c-0.2,0-1,8-5.2,10.2c0,0.1-5.4,12.5-5.4,13.5"/>
	<path class="st3" d="M131.7,75.2c0,0,6-3.9,8.1-2.3c0.2,0.1,1.5-2,2.6-1.7c0,0-0.1-0.2,0.8-1.1c0.2-0.2,0.2-2.4,0.2-2.5
		c0-0.3-0.1-0.7-0.4-0.7c-1.9-0.2-3.8-0.3-4.9,0.7c0.4-0.1,0.8,0,1.9,0.5c0,0-3.2,0.8-4.4,1.8c0.1,0,0.1-0.1,1.5,0.1
		C136.9,70,132.2,72.5,131.7,75.2z"/>
	<path class="st4" d="M101.4,112.3c0,0-4.1-1.4-4.1-1.6c-19.6,1.4-21.6-19.8-21.6-20c0.1-10.8,8.4-11.8,8.6-11.9
		c6.4-1.6,11.4,7.3,11.4,7.3"/>
	<path class="st5" d="M129.8,78.6c0,0,3.3-2.2,6.1-3.8c2.3-1.3,1.1-1.2,3.2-0.9c0.1,0.1,1.4-1.1,0.5,1.3c-0.4,1.5-1.1,4.4-0.1,5
		c0,0-0.9,0.7-3.7-0.8C133.5,78.2,130.1,78.4,129.8,78.6z"/>
	<path class="st5" d="M142.7,107.1l8.8-3.5c0.4-0.1,1.3-1.2,1.5,0.6c0,0.6-0.1,1.9-0.7,2c-1,0.1-7.3,0.6-7.2,1.8
		c-0.2,0.3,0.8,2.1,0.8,2.1l6.3,1.2c0,0,2.9,1.3,2.5,3.6l-11.4-5.5L142.7,107.1z"/>
	<path class="st6" d="M88.3,81.5c-1.3-0.2-2.7-0.1-3.9,0.3c-2.8,1-7.3,3.4-7,7.9c-0.1,0.2,0.5,9.1,2.9,11.8
		c-0.1,0.2,9.6,9.5,11.2,8.4c-0.3,0.5-12.9-0.6-15.8-20.3C75.6,89.7,77.2,79,86,78.7c2.5,0.2,7,2.7,6.4,3.3
		C92.1,82.2,90,81.8,88.3,81.5z"/>
	<path class="st3" d="M136.3,72.9c0,0,0.9-2.6,3-3c0,0-0.2-0.4-1-0.4c-0.8,0,3.2-2,4-1.8c0.1,0,0.7,1.5,0.7,1.5s-2.8,1.7-3,2.6
		C140,71.9,136.6,71.9,136.3,72.9z"/>
	<path class="st7" d="M85,93.3c0-1.1,2.6-2.5,2.6-4.8c0-0.9-1.2-0.4-1.7-0.8c-0.3-0.2-0.1-1.2-0.3-1.4c-0.4-0.6-0.7-1.1-0.8-1
		c-2-0.8-3.7,4.1-5.2,6.6C79.4,92.1,79,92,79,91.7c0-5,2-6.4,2-6.6c1.8-3.1,7.5-3.2,7.7-3c0.8,0,1.4,0.4,1.7,1.5
		c0.3,1.3,0.2,3.3,0.3,4c0,0.2,0.1,0.5,0.2,0.7c0.2,0.4,0.6,1.2,0.9,2.1c0.4,1.3,0,2.7-1.1,3.5l-2.3,1.7c-0.7,0.5-1.8,0.4-2.4-0.2
		C85.4,94.7,85,93.9,85,93.3z"/>
	<path class="st8" d="M145.3,92"/>
	<path class="st9" d="M143.7,90.7c0,0,3.1-1.8,7,0c0,0-4-3.2-6-2.6C144.6,88,143.8,88.7,143.7,90.7z"/>
	<path class="st10" d="M154,94c0,0-1.6-1.9-3.8,0.3c0,0-1.7,1.9-3.4,1.3c0.1,0-2.1-1.3-2.1-1.3s1.7,1.9,2,2c0.1,0,1.9-0.3,2.4-0.3
		C150.6,95.9,154,94.7,154,94z"/>
	<path class="st7" d="M86.5,99.6c0,0,5.1-5.3,6.9-4.7c0,0,2.8,0.3,2,2.2c-0.8,1.9,0.8,3.5,0.8,3.5s1.1,2.3-1.1,2.5
		c0.2,0-4.9-2.8-6.6-2.1C86.8,101.8,86.1,100.1,86.5,99.6z"/>
	<path class="st2" d="M129.5,73c0,0,3.8-8.6,4.9-10.1S116,46,114.2,45.4c0,0.5-6.5-5.3-4.5-6.7c0,0.3,15.5,1.6,16.3,2.8
		c0.2,0,4.3,2.1,7,6.9c0-0.1,4.6,10.4,6.8,13.8c0.3,0.5,0.1,1.1-0.3,1.3C137.3,64.6,133,68.3,129.5,73z"/>
	<path class="st2" d="M146,86.3c0,0-1.4-2.2-2.4-5c-3.6-3.9-1.5-6.9-1.5-6.9s0.5,1.8,3.9,5.2c4.4,4.5,14.6,11.8,12.1,12.6l-6.6-2
		C151.4,90.2,146.4,85.7,146,86.3z"/>
	<path class="st11" d="M137.4,75c-0.3,0.2-1.9,1.2-2.7,1.9c-0.2,0.2-0.1,0.5,0.2,0.6c0.9,0.2,2.6,0.5,3.6,0.8
		c0.2,0.1,0.5-0.1,0.5-0.4c-0.1-0.8-0.2-2.1-0.1-2.9c0-0.2-0.2-0.4-0.4-0.4C138,74.9,137.6,75,137.4,75C137.4,75,137.4,75,137.4,75z
		"/>
	<path class="st12" d="M103.4,119.8c0,0,29.7,24,39.7,19.2c-0.2,0-13.6,3.3-14.9,6.1C128.2,145,122.1,141.9,103.4,119.8z"/>
	<path class="st3" d="M64.8,127.2c0,0-22.9-37.7-21.5-48c0.2-0.1,3.4-30.9,11.4-36.2c0,0.2,12.1-16.7,57.2-11.4
		c0.2,0.3,14.7,6.1,15.4,9.5c0,0-4.6-2.6-13.8-0.8c-0.1,0.1-3.2,3.6,0.1,7.4c0.1,0.1,14.8,10.1,5.9,17c0,0-4.9,7.7-4.3,15.7
		c0,0.1,0.2,13.2,0.2,13.2l-10.6-0.9c0,0-8.2-18.9-23.2-14.1c0,0-13.3,4.1-7.9,40.9c0.1,0.6-8.3,7.7-8.3,7.7"/>
	<path class="st13" d="M151.7,106.3c0,0-5.8,0.5-6.7,1.3c0.2,0.1-1,1.9,1.5,2.9c0.1,0,5.7,0.9,5.7,0.9"/>
	<path class="st14" d="M137.2,75.1c0,0-0.3,2,0.4,3c0,0-3.3-0.6-3.3-0.6l1.1-1.1L137.2,75.1z"/>
	<g>
		<path class="st15" d="M139,111.3C139,111.2,139,111.2,139,111.3C139,111.3,139,111.3,139,111.3z"/>
		<path class="st15" d="M138.9,110.4c0,0.3,0,0.6,0.1,0.8C138.9,111,138.9,110.7,138.9,110.4z"/>
		<path class="st15" d="M137,106C137,106,137,106,137,106C137,106,137,106,137,106z"/>
	</g>
</g>
<ellipse class="st16" cx="135.7" cy="109.2" rx="5.5" ry="6"/>
</svg>
