<svg version="1.1" id="Слой_1" xmlns="http://www.w3.org/2000/svg" x="0" y="0" viewBox="0 0 199.7 199.7" xml:space="preserve"><style>.st2{fill:#bf9b80}.st3{fill:#4a4b4c}.st7{fill:#6f5a50}</style><circle cx="99.7" cy="98.8" r="87.9" fill="#1d527a"/><path class="st2" d="M57.7 160.5s9.8-3.8 6-33.3c-.1.4 8.5-8.6 8.5-8.6s-6.4-33 7.8-41.5c0 .1 12.5-6.2 24.7 15.1l9.1-.1s-2.2-22.4 4.8-29.6-12.1-20.8-12.1-20.8-5.5-6.3 4.9-6.1c.6-.1 5.2.8 5.2.8s6.7 1.7 8.7 3c.2.1.3.2.4.3.2.2 8.7 9.8 10 15.9.2 0 3.2 6.5 4 6.5-.1.2 3.1 5.8 2.2 9.1 0 .1-.9 5.7 2.9 7.5 0 0 10.8 10.3 11.7 10.2-.1.2 4.8 3.3-1.7 6.2 0 .1-2.7 1.3-2.7 1.3s-2.5.3-.5 3.5c.2.2 2.9 5.3-1 6.3 0 .1.5 4.8.4 5s4.7 1.3 3.1 4.8c-.1.2-1.6 3.5-1.6 3.5s-1.2 2.7-.3 3.1c.1.4 6.6 7.7 1 11.6-.1 0-8.8 4.8-21.4 8.3.2.2-6.4.1-4.9 9.3-.2 0-1 8-5.2 10.2 0 .1-5.4 12.5-5.4 13.5"/><path class="st3" d="M131.7 75.2s6-3.9 8.1-2.3c.2.1 1.5-2 2.6-1.7 0 0-.1-.2.8-1.1.2-.2.2-2.4.2-2.5 0-.3-.1-.7-.4-.7-1.9-.2-3.8-.3-4.9.7.4-.1.8 0 1.9.5 0 0-3.2.8-4.4 1.8.1 0 .1-.1 1.5.1-.2 0-4.9 2.5-5.4 5.2z"/><path d="M101.4 112.3s-4.1-1.4-4.1-1.6c-19.6 1.4-21.6-19.8-21.6-20 .1-10.8 8.4-11.8 8.6-11.9 6.4-1.6 11.4 7.3 11.4 7.3" fill="none" stroke="#c48e7e" stroke-width=".5" stroke-miterlimit="10"/><path d="M129.8 78.6s3.3-2.2 6.1-3.8c2.3-1.3 1.1-1.2 3.2-.9.1.1 1.4-1.1.5 1.3-.4 1.5-1.1 4.4-.1 5 0 0-.9.7-3.7-.8-2.3-1.2-5.7-1-6-.8zm12.9 28.5l8.8-3.5c.4-.1 1.3-1.2 1.5.6 0 .6-.1 1.9-.7 2-1 .1-7.3.6-7.2 1.8-.2.3.8 2.1.8 2.1l6.3 1.2s2.9 1.3 2.5 3.6l-11.4-5.5-.6-2.3z" fill="#93776a"/><path d="M88.3 81.5c-1.3-.2-2.7-.1-3.9.3-2.8 1-7.3 3.4-7 7.9-.1.2.5 9.1 2.9 11.8-.1.2 9.6 9.5 11.2 8.4-.3.5-12.9-.6-15.8-20.3-.1.1 1.5-10.6 10.3-10.9 2.5.2 7 2.7 6.4 3.3-.3.2-2.4-.2-4.1-.5z" fill="none" stroke="#966f60" stroke-width=".25" stroke-miterlimit="10"/><path class="st3" d="M136.3 72.9s.9-2.6 3-3c0 0-.2-.4-1-.4s3.2-2 4-1.8c.1 0 .7 1.5.7 1.5s-2.8 1.7-3 2.6c0 .1-3.4.1-3.7 1.1z"/><path class="st7" d="M85 93.3c0-1.1 2.6-2.5 2.6-4.8 0-.9-1.2-.4-1.7-.8-.3-.2-.1-1.2-.3-1.4-.4-.6-.7-1.1-.8-1-2-.8-3.7 4.1-5.2 6.6-.2.2-.6.1-.6-.2 0-5 2-6.4 2-6.6 1.8-3.1 7.5-3.2 7.7-3 .8 0 1.4.4 1.7 1.5.3 1.3.2 3.3.3 4 0 .2.1.5.2.7.2.4.6 1.2.9 2.1.4 1.3 0 2.7-1.1 3.5l-2.3 1.7c-.7.5-1.8.4-2.4-.2-.6-.7-1-1.5-1-2.1z"/><path d="M143.7 90.7s3.1-1.8 7 0c0 0-4-3.2-6-2.6-.1-.1-.9.6-1 2.6z" fill="#937869"/><path d="M154 94s-1.6-1.9-3.8.3c0 0-1.7 1.9-3.4 1.3.1 0-2.1-1.3-2.1-1.3s1.7 1.9 2 2c.1 0 1.9-.3 2.4-.3 1.5-.1 4.9-1.3 4.9-2z" fill="#7f6f62"/><path class="st7" d="M86.5 99.6s5.1-5.3 6.9-4.7c0 0 2.8.3 2 2.2-.8 1.9.8 3.5.8 3.5s1.1 2.3-1.1 2.5c.2 0-4.9-2.8-6.6-2.1-1.7.8-2.4-.9-2-1.4z"/><path class="st2" d="M129.5 73s3.8-8.6 4.9-10.1S116 46 114.2 45.4c0 .5-6.5-5.3-4.5-6.7 0 .3 15.5 1.6 16.3 2.8.2 0 4.3 2.1 7 6.9 0-.1 4.6 10.4 6.8 13.8.3.5.1 1.1-.3 1.3-2.2 1.1-6.5 4.8-10 9.5zM146 86.3s-1.4-2.2-2.4-5c-3.6-3.9-1.5-6.9-1.5-6.9s.5 1.8 3.9 5.2c4.4 4.5 14.6 11.8 12.1 12.6l-6.6-2c-.1 0-5.1-4.5-5.5-3.9z"/><path d="M137.4 75c-.3.2-1.9 1.2-2.7 1.9-.2.2-.1.5.2.6.9.2 2.6.5 3.6.8.2.1.5-.1.5-.4-.1-.8-.2-2.1-.1-2.9 0-.2-.2-.4-.4-.4-.5.3-.9.4-1.1.4z" fill="#3a3a3a"/><path d="M103.4 119.8s29.7 24 39.7 19.2c-.2 0-13.6 3.3-14.9 6.1 0-.1-6.1-3.2-24.8-25.3z" fill="#846c5f"/><path class="st3" d="M64.8 127.2s-22.9-37.7-21.5-48c.2-.1 3.4-30.9 11.4-36.2 0 .2 12.1-16.7 57.2-11.4.2.3 14.7 6.1 15.4 9.5 0 0-4.6-2.6-13.8-.8-.1.1-3.2 3.6.1 7.4.1.1 14.8 10.1 5.9 17 0 0-4.9 7.7-4.3 15.7 0 .1.2 13.2.2 13.2l-10.6-.9s-8.2-18.9-23.2-14.1c0 0-13.3 4.1-7.9 40.9.1.6-8.3 7.7-8.3 7.7"/><path d="M151.7 106.3s-5.8.5-6.7 1.3c.2.1-1 1.9 1.5 2.9.1 0 5.7.9 5.7.9" fill="#e4e4e4"/><path d="M137.2 75.1s-.3 2 .4 3l-3.3-.6 1.1-1.1 1.8-1.3z" fill="#fff"/><path d="M139 111.3c0-.1 0-.1 0 0zm-.1-.9c0 .3 0 .6.1.8-.1-.2-.1-.5-.1-.8zM137 106z" fill="none" stroke="#ecdfdb" stroke-width=".25" stroke-miterlimit="10"/><ellipse cx="135.7" cy="109.2" rx="5.5" ry="6" fill="#bf9b80" stroke="#bf9b80" stroke-miterlimit="10"/></svg>